<?xml version="1.0" encoding="UTF-8" standalone="no"?>
<!DOCTYPE svg PUBLIC "-//W3C//DTD SVG 1.1//EN" "http://www.w3.org/Graphics/SVG/1.1/DTD/svg11.dtd">
<svg width="100%" height="100%" viewBox="0 0 731 210" version="1.1" xmlns="http://www.w3.org/2000/svg" xmlns:xlink="http://www.w3.org/1999/xlink" xml:space="preserve" xmlns:serif="http://www.serif.com/" style="fill-rule:evenodd;clip-rule:evenodd;stroke-linejoin:round;stroke-miterlimit:2;">
    <g id="Identidad">
        <path d="M266.63,69.56L266.63,118.64C266.63,132.64 260.34,139.53 248.7,139.53L235.21,139.53C222.21,139.53 214.04,131.58 214.04,115.13C214.04,98.68 222.17,90.73 235.21,90.73L256.74,90.73L256.74,69.56L266.63,69.56ZM256.74,118.18L256.74,100.18L236.13,100.18C227.72,100.18 223.93,104.62 223.93,115.18C223.93,125.74 227.72,130 236.13,130L245.83,130C253.69,130 256.74,126.49 256.74,118.18Z" style="fill:white;fill-rule:nonzero;"/>
        <path d="M289.74,90.73L289.74,119.93C289.74,125.66 293.99,130.01 301.74,130.01L309.69,130.01C317.45,130.01 321.61,125.66 321.61,119.93L321.61,90.73L331.22,90.73L331.22,120.3C331.22,131.58 324.01,139.53 310.06,139.53L301,139.53C287,139.53 279.84,131.58 279.84,120.3L279.84,90.73L289.74,90.73Z" style="fill:white;fill-rule:nonzero;"/>
        <path d="M401.57,90.73C418.11,90.73 426.24,98.58 426.24,112.08L426.24,139.53L416.35,139.53L416.35,112.08C416.35,104.41 411.92,100.15 401.66,100.15L390.2,100.15L390.2,139.53L380.31,139.53L380.31,100.15L355.54,100.15C354.71,100.15 354.34,100.62 354.34,101.54L354.34,139.54L344.54,139.54L344.54,98.31C344.54,92.58 346.48,90.73 351.38,90.73L401.57,90.73Z" style="fill:white;fill-rule:nonzero;"/>
        <path d="M470.7,90.73C482.9,90.73 487.7,97.57 487.7,106.81L487.7,129.73C487.7,136.73 485.86,139.53 477.63,139.53L454.8,139.53C443.25,139.53 438.44,133.89 438.44,124.65C438.44,115.77 442.88,110.6 454.89,110.6L478.09,110.6L478.09,106.9C478.09,103.11 475.97,100.15 470.61,100.15L441.4,100.15L441.4,90.73L470.7,90.73ZM478.09,127.51L478.09,118.36L455.09,118.36C449.91,118.36 448.09,120.49 448.09,124.09C448.09,127.69 450,130 454.89,130L475.41,130C477.35,130 478.09,129.27 478.09,127.51Z" style="fill:white;fill-rule:nonzero;"/>
        <path d="M541.77,90.73L541.77,100.15L514.77,100.15C510.25,100.15 508.4,102 508.4,105.7C508.4,109.12 509.88,110.97 515.33,110.97L526.8,110.97C540.29,110.97 543.71,117.16 543.71,124.74C543.71,133.43 539.18,139.53 527.71,139.53L499.35,139.53L499.35,130L527.72,130C532.25,130 534.1,128.43 534.1,124.64C534.1,120.85 532.1,119.18 527.17,119.18L515.62,119.18C502.12,119.18 498.8,112.44 498.8,104.95C498.8,96.17 503.32,90.72 514.69,90.72L541.77,90.73Z" style="fill:rgb(55,58,54);fill-rule:nonzero;"/>
        <path d="M583.92,90.73C596.86,90.73 605.08,98.73 605.08,115.13C605.08,131.53 596.86,139.53 583.92,139.53L573.66,139.53C560.66,139.53 552.49,131.58 552.49,115.13C552.49,98.68 560.63,90.73 573.66,90.73L583.92,90.73ZM574.58,100.15C566.08,100.15 562.38,104.59 562.38,115.15C562.38,125.71 566.08,130.03 574.58,130.03L583,130.03C591.41,130.03 595.2,125.68 595.2,115.15C595.2,104.62 591.41,100.15 583,100.15L574.58,100.15Z" style="fill:rgb(55,58,54);fill-rule:nonzero;"/>
        <path d="M618.11,90.73L618.11,86.38C618.11,73.63 622.46,69.56 632.53,69.56L641.31,69.56L641.31,78.56L634.56,78.56C629.94,78.56 628,80.41 628,85.86L628,90.76L641.5,90.76L641.5,100.18L628,100.18L628,139.56L618.11,139.56L618.11,100.15L611.46,100.15L611.46,90.73L618.11,90.73Z" style="fill:rgb(55,58,54);fill-rule:nonzero;"/>
        <path d="M654.16,90.73L654.16,79.17L664.05,79.17L664.05,90.73L677.54,90.73L677.54,100.15L664.05,100.15L664.05,123.26C664.05,128.71 665.99,130.56 670.61,130.56L677.35,130.56L677.35,139.56L668.57,139.56C658.5,139.56 654.16,135.49 654.16,122.74L654.16,100.15L647.5,100.15L647.5,90.73L654.16,90.73Z" style="fill:rgb(55,58,54);fill-rule:nonzero;"/>
        <path d="M99.77,48.5C98.39,48.5 97.02,48.56 95.65,48.67C88.315,49.246 81.207,51.49 74.87,55.23C67.9,59.378 62.138,65.282 58.16,72.35C50.459,85.852 50.774,102.548 58.98,115.75C66.897,128.917 77.772,140.062 90.74,148.3C103.406,156.252 118.045,160.509 133,160.59L136.09,160.59L136.09,128.59C138.662,130.382 141.725,131.339 144.86,131.33C153.1,131.33 159.8,124.89 159.8,116.96L159.8,101.5C178.8,92.19 191.8,73.31 191.8,51.59L191.8,48.5L99.77,48.5ZM108.83,85.21C104.83,85.15 101.29,81.69 101.39,77.86C101.656,73.838 105.166,70.738 109.19,70.97C113.123,70.994 116.345,74.237 116.345,78.17C116.345,78.263 116.344,78.357 116.34,78.45C115.946,82.278 112.678,85.22 108.83,85.21ZM153.66,116.94C153.66,121.46 149.73,125.13 144.9,125.13C140.06,125.13 136.13,121.46 136.13,116.94L136.13,107.6C142.114,107.312 148.022,106.136 153.66,104.11L153.66,116.94ZM159.84,94.52C158.84,95.09 157.84,95.63 156.75,96.13C150.293,99.235 143.285,101.033 136.13,101.42L136.13,83.25C136.043,71.704 130.136,60.949 120.44,54.68L173,54.68L173,65.78C177.37,65.828 181.585,64.136 184.71,61.08C181.66,75.297 172.578,87.508 159.84,94.52Z" style="fill:rgb(55,58,54);fill-rule:nonzero;"/>
    </g>
</svg>
